<?xml version="1.0" encoding="UTF-8"?>
<svg xmlns="http://www.w3.org/2000/svg" width="800" height="600" viewBox="0 0 800 600">
  <!-- Tetris blocks -->
  <!-- Blue blocks -->
  <rect x="410" y="140" width="60" height="60" fill="#1E88E5" stroke="#0D47A1" stroke-width="2"/>
  <rect x="350" y="220" width="60" height="60" fill="#1E88E5" stroke="#0D47A1" stroke-width="2"/>
  <rect x="410" y="220" width="60" height="60" fill="#1E88E5" stroke="#0D47A1" stroke-width="2"/>
  <rect x="470" y="220" width="60" height="60" fill="#1E88E5" stroke="#0D47A1" stroke-width="2"/>
  <rect x="580" y="380" width="60" height="60" fill="#1E88E5" stroke="#0D47A1" stroke-width="2"/>
  
  <!-- Orange blocks -->
  <rect x="290" y="290" width="60" height="60" fill="#FF8F00" stroke="#EF6C00" stroke-width="2"/>
  <rect x="670" y="290" width="60" height="60" fill="#FF8F00" stroke="#EF6C00" stroke-width="2"/>
  <rect x="340" y="370" width="60" height="60" fill="#FF8F00" stroke="#EF6C00" stroke-width="2"/>
  <rect x="400" y="370" width="60" height="60" fill="#FF8F00" stroke="#EF6C00" stroke-width="2"/>
  <rect x="630" y="290" width="60" height="120" fill="#FF8F00" stroke="#EF6C00" stroke-width="2"/>
  
  <!-- Green blocks -->
  <rect x="350" y="290" width="60" height="60" fill="#43A047" stroke="#2E7D32" stroke-width="2"/>
  <rect x="410" y="290" width="60" height="60" fill="#43A047" stroke="#2E7D32" stroke-width="2"/>
  <rect x="350" y="350" width="60" height="60" fill="#43A047" stroke="#2E7D32" stroke-width="2"/>
  <rect x="410" y="350" width="60" height="60" fill="#43A047" stroke="#2E7D32" stroke-width="2"/>
  <rect x="350" y="410" width="60" height="60" fill="#43A047" stroke="#2E7D32" stroke-width="2"/>
  
  <!-- Yellow blocks -->
  <rect x="350" y="470" width="60" height="60" fill="#FDD835" stroke="#F9A825" stroke-width="2"/>
  <rect x="410" y="470" width="60" height="60" fill="#FDD835" stroke="#F9A825" stroke-width="2"/>
  
  <!-- Red blocks -->
  <rect x="470" y="290" width="60" height="60" fill="#E53935" stroke="#C62828" stroke-width="2"/>
  <rect x="530" y="290" width="60" height="120" fill="#E53935" stroke="#C62828" stroke-width="2"/>
  
  <!-- L-shaped side brackets -->
  <path d="M190 370 L190 430 L270 430" fill="none" stroke="#FFA000" stroke-width="12"/>
  <path d="M610 370 L610 430 L530 430" fill="none" stroke="#FFA000" stroke-width="12"/>
  
  <!-- TETRIS text -->
  <path d="M155 470 L355 470 L355 520 L315 520 L315 570 L255 570 L255 520 L155 520 Z" fill="#F5F5DC" stroke="#000000" stroke-width="2"/>
  <path d="M365 470 L465 470 L465 570 L365 570 L365 520 L405 520 L405 520 L365 520 Z" fill="#F5F5DC" stroke="#000000" stroke-width="2"/>
  <path d="M475 470 L675 470 L675 520 L635 520 L635 570 L575 570 L575 520 L475 520 Z" fill="#F5F5DC" stroke="#000000" stroke-width="2"/>
  <path d="M685 470 L735 470 L735 520 L685 520 Z" fill="#F5F5DC" stroke="#000000" stroke-width="2"/>
  <path d="M745 470 L745 570 L695 570 L695 520 L745 520 Z" fill="#F5F5DC" stroke="#000000" stroke-width="2"/>
  
  <!-- BATTLE text -->
  <path d="M275 590 L275 750 L375 750 C400 750 425 725 425 700 C425 675 400 650 375 650 L325 650 L325 590 Z" fill="#F5F5DC" stroke="#000000" stroke-width="2"/>
  <path d="M435 590 L535 590 L535 750 L435 750 Z" fill="#F5F5DC" stroke="#000000" stroke-width="2"/>
  <path d="M545 590 L595 590 L595 750 L545 750 Z" fill="#F5F5DC" stroke="#000000" stroke-width="2"/>
  <path d="M605 590 L655 590 L655 750 L605 750 Z" fill="#F5F5DC" stroke="#000000" stroke-width="2"/>
  <path d="M665 590 L765 590 L765 670 L715 670 L715 670 L715 750 L665 750 Z" fill="#F5F5DC" stroke="#000000" stroke-width="2"/>
  
  <!-- Bottom shield shape -->
  <path d="M200 780 L400 900 L600 780" fill="none" stroke="#FFA000" stroke-width="12"/>
</svg>
